# xmcd CD database file
#
# Track frame offsets:
#	150
#	25521
#	43382
#	61888
#	79067
#	97030
#	116010
#	132529
#	154411
#	173687
#	188895
#	205703
#
# Disc length: 2978 seconds
#
# Revision: 0
# Processed by: cddbd v1.4PL0 Copyright (c) Steve Scherf et al.
# Submitted via: CDex 1.50
#
DISCID=a30ba00c
DTITLE=Various Artist - Los Mejores de la Bachata 2003
DYEAR=2003
DGENRE=Bachata
TTITLE0=ANTONY SANTOS - HAY DE MI,HAY DE TI
TTITLE1=JOSKAR SARANTE - NO TE OLVIDO
TTITLE2=MONCHY and ALEXANDRA  - DOS LOCOS
TTITLE3=LUIS VARGAS - EL ENGANO
TTITLE4=FRANK REYES - TU ERES AJENA
TTITLE5=AVENTURA - OBSESION
TTITLE6=NUEVA ERA - AMOR ETERNO
TTITLE7=RAULIN RODRIGUEZ - SI TU TE VAS
TTITLE8=EL GRINGO DE LA BACHATA - A MILES DE MILLAS
TTITLE9=DASVICITO PAREDES - POR MI MADRE GUE YO NO FUI
TTITLE10=SENCIO LOPEZ and LUIS VARGAS - O CON EL,O CON MIGO
TTITLE11=HE PEPO - LOCO PERDIDO
EXTD=YEAR: 2003
EXTT0=
EXTT1=
EXTT2=
EXTT3=
EXTT4=
EXTT5=
EXTT6=
EXTT7=
EXTT8=
EXTT9=
EXTT10=
EXTT11=
PLAYORDER=
